<svg width="26" height="26" viewBox="0 0 26 26" fill="none" xmlns="http://www.w3.org/2000/svg">
<g id="twemoji:flag-australia" clip-path="url(#clip0_916_1311)">
<path id="Vector" d="M23.1111 3.61133H2.88889C2.74084 3.61133 2.59495 3.62216 2.45267 3.64383L2.44978 4.91061L0.478114 4.90772C0.165498 5.37993 -0.000817586 5.9339 3.02208e-06 6.50022V19.5002C3.02208e-06 20.2664 0.304367 21.0012 0.846139 21.543C1.38791 22.0847 2.12271 22.3891 2.88889 22.3891H23.1111C23.8773 22.3891 24.6121 22.0847 25.1539 21.543C25.6956 21.0012 26 20.2664 26 19.5002V6.50022C26 5.73404 25.6956 4.99924 25.1539 4.45746C24.6121 3.91569 23.8773 3.61133 23.1111 3.61133Z" fill="#00247D"/>
<path id="Vector_2" d="M6.49982 18.7946L5.61727 19.61L5.70466 18.4111L4.5166 18.2298L5.50821 17.551L4.90949 16.5088L6.05855 16.8612L6.49982 15.7425L6.94182 16.8612L8.09088 16.5088L7.49143 17.551L8.48377 18.2298L7.29571 18.4111L7.3831 19.61L6.49982 18.7946ZM20.1859 6.90612L19.6089 7.43912L19.6659 6.65479L18.8881 6.53635L19.5374 6.09218L19.1459 5.4104L19.897 5.64079L20.1859 4.90918L20.4755 5.64079L21.2274 5.4104L20.8352 6.09218L21.4838 6.53635L20.7067 6.65479L20.7637 7.43912L20.1859 6.90612ZM17.297 11.2395L16.72 11.7732L16.777 10.9888L15.9992 10.8704L16.6485 10.4255L16.257 9.74374L17.0082 9.97412L17.297 9.24251L17.5867 9.97412L18.3385 9.74374L17.9463 10.4255L18.5949 10.8704L17.8178 10.9888L17.8748 11.7732L17.297 11.2395ZM23.797 9.79501L23.22 10.3287L23.277 9.5444L22.4992 9.42596L23.1485 8.98107L22.757 8.29929L23.5082 8.52968L23.797 7.79807L24.0867 8.52968L24.8385 8.29929L24.4463 8.98107L25.0949 9.42596L24.3178 9.5444L24.3748 10.3287L23.797 9.79501ZM20.1859 19.9061L19.6089 20.4398L19.6659 19.6555L18.8881 19.5371L19.5374 19.0922L19.1459 18.4104L19.897 18.6408L20.1859 17.9092L20.4755 18.6408L21.2274 18.4104L20.8352 19.0922L21.4838 19.5371L20.7067 19.6555L20.7637 20.4398L20.1859 19.9061ZM22.3887 11.5558L22.601 11.9862L23.0755 12.0548L22.7325 12.3892L22.8134 12.8623L22.3887 12.6391L21.964 12.8623L22.0449 12.3892L21.7019 12.0548L22.1764 11.9862L22.3887 11.5558Z" fill="white"/>
<path id="Vector_3" d="M13.7222 13.0002V3.61133H2.88889C2.65778 3.61133 2.45267 3.64383 2.45267 3.64383L2.44978 4.91061L0.478113 4.90772C0.478113 4.90772 0.44778 4.95033 0.386391 5.05577C0.132684 5.49484 -0.000604099 5.99312 2.05828e-06 6.50022V13.0002H13.7222Z" fill="#00247D"/>
<path id="Vector_4" d="M13.7222 3.61133H12.0387L8.66667 5.97227V3.61133H5.05556V5.46672L2.45267 3.64383C2.0185 3.70868 1.60522 3.87306 1.24511 4.12411L4.641 6.50022H3.38722L0.698389 4.61594C0.619094 4.70863 0.545531 4.80607 0.478111 4.90772L2.75383 6.50022H0V10.1113H2.80583L0 12.109V13.0002H2.40644L5.05556 11.1456V13.0002H8.66667V10.6393L12.038 13.0002H13.7222V11.5348L11.6892 10.1113H13.7222V6.50022H11.6899L13.7222 5.07672V3.61133Z" fill="#EEEEEE"/>
<path id="Vector_5" d="M7.94444 3.61133H5.77778V7.22244H0V9.38911H5.77778V13.0002H7.94444V9.38911H13.7222V7.22244H7.94444V3.61133Z" fill="#CF1B2B"/>
<path id="Vector_6" d="M13.7224 3.61133H12.6672L8.66683 6.41283V6.50022H9.80144L13.7224 3.75433V3.61133ZM1.24527 4.12411C1.04308 4.26441 0.859386 4.42966 0.698551 4.61594L3.38738 6.50022H4.64044L1.24527 4.12411ZM4.64911 10.1113L0.530273 13.0002H1.77755L5.05572 10.705V10.1113H4.64911ZM13.7224 12.8572V11.9761L11.0596 10.1113H9.80072L13.7224 12.8572Z" fill="#CF1B2B"/>
</g>
<defs>
<clipPath id="clip0_916_1311">
<rect width="26" height="26" fill="white"/>
</clipPath>
</defs>
</svg>
